<mxfile host="app.diagrams.net" agent="Mozilla/5.0 (Windows NT 10.0; Win64; x64) AppleWebKit/537.36 (KHTML, like Gecko) Chrome/140.0.0.0 Safari/537.36" version="28.2.7">
  <diagram name="Page-1" id="yjvVMkEcZvmrGyar97Rn">
    <mxGraphModel dx="1613" dy="459" grid="1" gridSize="10" guides="1" tooltips="1" connect="1" arrows="1" fold="1" page="1" pageScale="1" pageWidth="827" pageHeight="1169" math="0" shadow="0">
      <root>
        <mxCell id="0" />
        <mxCell id="1" parent="0" />
        <mxCell id="W7hO3nz5qNOeq-8jHfzO-3" value="" style="rounded=1;whiteSpace=wrap;html=1;" vertex="1" parent="1">
          <mxGeometry x="240" y="30" width="60" height="100" as="geometry" />
        </mxCell>
        <mxCell id="W7hO3nz5qNOeq-8jHfzO-5" value="CLIENT" style="text;html=1;whiteSpace=wrap;strokeColor=none;fillColor=none;align=center;verticalAlign=middle;rounded=0;" vertex="1" parent="1">
          <mxGeometry x="240" y="70" width="60" height="20" as="geometry" />
        </mxCell>
        <mxCell id="W7hO3nz5qNOeq-8jHfzO-6" value="" style="rounded=0;whiteSpace=wrap;html=1;" vertex="1" parent="1">
          <mxGeometry x="210" y="203" width="120" height="60" as="geometry" />
        </mxCell>
        <mxCell id="W7hO3nz5qNOeq-8jHfzO-7" value="API gateway" style="text;html=1;whiteSpace=wrap;strokeColor=none;fillColor=none;align=center;verticalAlign=middle;rounded=0;" vertex="1" parent="1">
          <mxGeometry x="240" y="218" width="60" height="30" as="geometry" />
        </mxCell>
        <mxCell id="W7hO3nz5qNOeq-8jHfzO-8" value="Authentication service" style="text;html=1;whiteSpace=wrap;strokeColor=none;fillColor=none;align=center;verticalAlign=middle;rounded=0;" vertex="1" parent="1">
          <mxGeometry x="240" y="321" width="60" height="30" as="geometry" />
        </mxCell>
        <mxCell id="W7hO3nz5qNOeq-8jHfzO-9" value="Login" style="text;html=1;whiteSpace=wrap;strokeColor=none;fillColor=none;align=center;verticalAlign=middle;rounded=0;" vertex="1" parent="1">
          <mxGeometry x="354" y="320" width="60" height="30" as="geometry" />
        </mxCell>
        <mxCell id="W7hO3nz5qNOeq-8jHfzO-10" value="Virtual card gateway" style="text;html=1;whiteSpace=wrap;strokeColor=none;fillColor=none;align=center;verticalAlign=middle;rounded=0;" vertex="1" parent="1">
          <mxGeometry x="40" y="218" width="70" height="30" as="geometry" />
        </mxCell>
        <mxCell id="W7hO3nz5qNOeq-8jHfzO-11" value="" style="endArrow=classic;html=1;rounded=0;entryX=0.5;entryY=0;entryDx=0;entryDy=0;exitX=0.5;exitY=1;exitDx=0;exitDy=0;" edge="1" parent="1" source="W7hO3nz5qNOeq-8jHfzO-3" target="W7hO3nz5qNOeq-8jHfzO-6">
          <mxGeometry width="50" height="50" relative="1" as="geometry">
            <mxPoint x="380" y="270" as="sourcePoint" />
            <mxPoint x="430" y="220" as="targetPoint" />
          </mxGeometry>
        </mxCell>
        <mxCell id="W7hO3nz5qNOeq-8jHfzO-12" value="" style="endArrow=classic;html=1;rounded=0;exitX=0.5;exitY=1;exitDx=0;exitDy=0;entryX=0.5;entryY=0;entryDx=0;entryDy=0;" edge="1" parent="1" source="W7hO3nz5qNOeq-8jHfzO-6" target="W7hO3nz5qNOeq-8jHfzO-8">
          <mxGeometry width="50" height="50" relative="1" as="geometry">
            <mxPoint x="380" y="270" as="sourcePoint" />
            <mxPoint x="430" y="220" as="targetPoint" />
          </mxGeometry>
        </mxCell>
        <mxCell id="W7hO3nz5qNOeq-8jHfzO-13" value="" style="endArrow=classic;html=1;rounded=0;exitX=0;exitY=0.5;exitDx=0;exitDy=0;entryX=1;entryY=0.5;entryDx=0;entryDy=0;" edge="1" parent="1" source="W7hO3nz5qNOeq-8jHfzO-6" target="W7hO3nz5qNOeq-8jHfzO-10">
          <mxGeometry width="50" height="50" relative="1" as="geometry">
            <mxPoint x="380" y="270" as="sourcePoint" />
            <mxPoint x="430" y="220" as="targetPoint" />
          </mxGeometry>
        </mxCell>
        <mxCell id="W7hO3nz5qNOeq-8jHfzO-14" value="" style="endArrow=classic;html=1;rounded=0;exitX=1;exitY=0.5;exitDx=0;exitDy=0;entryX=0;entryY=0.5;entryDx=0;entryDy=0;" edge="1" parent="1" source="W7hO3nz5qNOeq-8jHfzO-8" target="W7hO3nz5qNOeq-8jHfzO-9">
          <mxGeometry width="50" height="50" relative="1" as="geometry">
            <mxPoint x="380" y="270" as="sourcePoint" />
            <mxPoint x="430" y="220" as="targetPoint" />
          </mxGeometry>
        </mxCell>
        <mxCell id="W7hO3nz5qNOeq-8jHfzO-15" value="Redis (Cache)" style="text;html=1;whiteSpace=wrap;strokeColor=none;fillColor=none;align=center;verticalAlign=middle;rounded=0;" vertex="1" parent="1">
          <mxGeometry x="45" y="330" width="60" height="30" as="geometry" />
        </mxCell>
        <mxCell id="W7hO3nz5qNOeq-8jHfzO-16" value="" style="endArrow=classic;html=1;rounded=0;exitX=0.5;exitY=1;exitDx=0;exitDy=0;entryX=0.5;entryY=0;entryDx=0;entryDy=0;" edge="1" parent="1" source="W7hO3nz5qNOeq-8jHfzO-10" target="W7hO3nz5qNOeq-8jHfzO-15">
          <mxGeometry width="50" height="50" relative="1" as="geometry">
            <mxPoint x="380" y="270" as="sourcePoint" />
            <mxPoint x="430" y="220" as="targetPoint" />
          </mxGeometry>
        </mxCell>
        <mxCell id="W7hO3nz5qNOeq-8jHfzO-17" value="" style="endArrow=classic;html=1;rounded=0;exitX=0;exitY=0.5;exitDx=0;exitDy=0;" edge="1" parent="1" source="W7hO3nz5qNOeq-8jHfzO-10" target="W7hO3nz5qNOeq-8jHfzO-18">
          <mxGeometry width="50" height="50" relative="1" as="geometry">
            <mxPoint x="230" y="250" as="sourcePoint" />
            <mxPoint x="-40" y="233" as="targetPoint" />
          </mxGeometry>
        </mxCell>
        <mxCell id="W7hO3nz5qNOeq-8jHfzO-18" value="Database" style="text;html=1;whiteSpace=wrap;strokeColor=none;fillColor=none;align=center;verticalAlign=middle;rounded=0;" vertex="1" parent="1">
          <mxGeometry x="-70" y="218" width="60" height="30" as="geometry" />
        </mxCell>
        <mxCell id="W7hO3nz5qNOeq-8jHfzO-19" value="" style="endArrow=classic;html=1;rounded=0;exitX=0.5;exitY=0;exitDx=0;exitDy=0;" edge="1" parent="1" source="W7hO3nz5qNOeq-8jHfzO-10" target="W7hO3nz5qNOeq-8jHfzO-20">
          <mxGeometry width="50" height="50" relative="1" as="geometry">
            <mxPoint x="110" y="250" as="sourcePoint" />
            <mxPoint x="75" y="170" as="targetPoint" />
          </mxGeometry>
        </mxCell>
        <mxCell id="W7hO3nz5qNOeq-8jHfzO-20" value="3rd Party card API" style="text;html=1;whiteSpace=wrap;strokeColor=none;fillColor=none;align=center;verticalAlign=middle;rounded=0;" vertex="1" parent="1">
          <mxGeometry x="45" y="155" width="60" height="30" as="geometry" />
        </mxCell>
        <mxCell id="W7hO3nz5qNOeq-8jHfzO-21" value="" style="endArrow=classic;html=1;rounded=0;exitX=1;exitY=0.5;exitDx=0;exitDy=0;" edge="1" parent="1" source="W7hO3nz5qNOeq-8jHfzO-6" target="W7hO3nz5qNOeq-8jHfzO-22">
          <mxGeometry width="50" height="50" relative="1" as="geometry">
            <mxPoint x="110" y="260" as="sourcePoint" />
            <mxPoint x="420" y="233" as="targetPoint" />
          </mxGeometry>
        </mxCell>
        <mxCell id="W7hO3nz5qNOeq-8jHfzO-22" value="Wallet service" style="text;html=1;whiteSpace=wrap;strokeColor=none;fillColor=none;align=center;verticalAlign=middle;rounded=0;" vertex="1" parent="1">
          <mxGeometry x="390" y="218" width="60" height="30" as="geometry" />
        </mxCell>
        <mxCell id="W7hO3nz5qNOeq-8jHfzO-23" value="" style="endArrow=classic;html=1;rounded=0;exitX=1;exitY=0.5;exitDx=0;exitDy=0;" edge="1" parent="1" source="W7hO3nz5qNOeq-8jHfzO-22" target="W7hO3nz5qNOeq-8jHfzO-24">
          <mxGeometry width="50" height="50" relative="1" as="geometry">
            <mxPoint x="390" y="260" as="sourcePoint" />
            <mxPoint x="520" y="230" as="targetPoint" />
          </mxGeometry>
        </mxCell>
        <mxCell id="W7hO3nz5qNOeq-8jHfzO-24" value="Third party wallet API" style="text;html=1;whiteSpace=wrap;strokeColor=none;fillColor=none;align=center;verticalAlign=middle;rounded=0;" vertex="1" parent="1">
          <mxGeometry x="490" y="215" width="60" height="30" as="geometry" />
        </mxCell>
        <mxCell id="W7hO3nz5qNOeq-8jHfzO-25" value="" style="endArrow=classic;html=1;rounded=0;exitX=0.5;exitY=1;exitDx=0;exitDy=0;" edge="1" parent="1" source="W7hO3nz5qNOeq-8jHfzO-24" target="W7hO3nz5qNOeq-8jHfzO-26">
          <mxGeometry width="50" height="50" relative="1" as="geometry">
            <mxPoint x="390" y="260" as="sourcePoint" />
            <mxPoint x="520" y="320" as="targetPoint" />
          </mxGeometry>
        </mxCell>
        <mxCell id="W7hO3nz5qNOeq-8jHfzO-26" value="Shared Database" style="text;html=1;whiteSpace=wrap;strokeColor=none;fillColor=none;align=center;verticalAlign=middle;rounded=0;" vertex="1" parent="1">
          <mxGeometry x="490" y="305" width="60" height="30" as="geometry" />
        </mxCell>
        <mxCell id="W7hO3nz5qNOeq-8jHfzO-27" value="" style="endArrow=classic;html=1;rounded=0;exitX=0.5;exitY=1;exitDx=0;exitDy=0;" edge="1" parent="1" source="W7hO3nz5qNOeq-8jHfzO-15" target="W7hO3nz5qNOeq-8jHfzO-28">
          <mxGeometry width="50" height="50" relative="1" as="geometry">
            <mxPoint x="390" y="260" as="sourcePoint" />
            <mxPoint x="75" y="400" as="targetPoint" />
          </mxGeometry>
        </mxCell>
        <mxCell id="W7hO3nz5qNOeq-8jHfzO-28" value="Database" style="text;html=1;whiteSpace=wrap;strokeColor=none;fillColor=none;align=center;verticalAlign=middle;rounded=0;" vertex="1" parent="1">
          <mxGeometry x="45" y="385" width="60" height="30" as="geometry" />
        </mxCell>
      </root>
    </mxGraphModel>
  </diagram>
</mxfile>
